<svg width="72" height="72" viewBox="0 0 72 72" fill="none" xmlns="http://www.w3.org/2000/svg">
<path d="M36 3L9 15V33C9 49.65 20.52 65.22 36 69C51.48 65.22 63 49.65 63 33V15L36 3ZM36 14.7C37.78 14.7 39.5201 15.2278 41.0001 16.2168C42.4802 17.2057 43.6337 18.6113 44.3149 20.2558C44.9961 21.9004 45.1743 23.71 44.8271 25.4558C44.4798 27.2016 43.6226 28.8053 42.364 30.064C41.1053 31.3226 39.5016 32.1798 37.7558 32.5271C36.01 32.8743 34.2004 32.6961 32.5558 32.0149C30.9113 31.3337 29.5057 30.1802 28.5168 28.7001C27.5278 27.2201 27 25.48 27 23.7C27 21.3131 27.9482 19.0239 29.636 17.336C31.3239 15.6482 33.6131 14.7 36 14.7ZM36 38.4C42 38.4 54 41.67 54 47.64C52.0297 50.6104 49.3549 53.047 46.2142 54.7325C43.0735 56.418 39.5644 57.3001 36 57.3001C32.4356 57.3002 28.9265 56.418 25.7858 54.7325C22.6451 53.047 19.9703 50.6104 18 47.64C18 41.67 30 38.4 36 38.4Z" fill="#14C6A5"/>
</svg>
