<svg width="32" height="32" viewBox="0 0 32 32" fill="none" xmlns="http://www.w3.org/2000/svg">
<path d="M22 8C24.1217 8 26.1566 8.84285 27.6569 10.3431C29.1571 11.8434 30 13.8783 30 16C30 18.1217 29.1571 20.1566 27.6569 21.6569C26.1566 23.1571 24.1217 24 22 24H16C17.2429 23.0694 18.2516 21.8617 18.946 20.473C19.6403 19.0842 20.0012 17.5527 20 16C20.0012 14.4473 19.6403 12.9158 18.946 11.527C18.2516 10.1383 17.2429 8.93061 16 8H22ZM10 24C7.87827 24 5.84344 23.1571 4.34315 21.6569C2.84285 20.1566 2 18.1217 2 16C2 13.8783 2.84285 11.8434 4.34315 10.3431C5.84344 8.84285 7.87827 8 10 8C12.1217 8 14.1566 8.84285 15.6569 10.3431C17.1571 11.8434 18 13.8783 18 16C18 18.1217 17.1571 20.1566 15.6569 21.6569C14.1566 23.1571 12.1217 24 10 24ZM0 16C0 18.6522 1.05357 21.1957 2.92893 23.0711C4.8043 24.9464 7.34784 26 10 26H22C24.6522 26 27.1957 24.9464 29.0711 23.0711C30.9464 21.1957 32 18.6522 32 16C32 13.3478 30.9464 10.8043 29.0711 8.92893C27.1957 7.05357 24.6522 6 22 6H10C7.34784 6 4.8043 7.05357 2.92893 8.92893C1.05357 10.8043 0 13.3478 0 16Z" fill="black"/>
</svg>
