<svg width="41" height="41" viewBox="0 0 41 41" fill="none" xmlns="http://www.w3.org/2000/svg">
<path d="M20.5007 7.6875C11.959 7.6875 4.6644 13.0004 1.70898 20.5C4.6644 27.9996 11.959 33.3125 20.5007 33.3125C29.0423 33.3125 36.3369 27.9996 39.2923 20.5C36.3369 13.0004 29.0423 7.6875 20.5007 7.6875ZM20.5007 29.0417C15.7857 29.0417 11.959 25.215 11.959 20.5C11.959 15.785 15.7857 11.9583 20.5007 11.9583C25.2157 11.9583 29.0423 15.785 29.0423 20.5C29.0423 25.215 25.2157 29.0417 20.5007 29.0417ZM20.5007 15.375C17.6648 15.375 15.3757 17.6642 15.3757 20.5C15.3757 23.3358 17.6648 25.625 20.5007 25.625C23.3365 25.625 25.6257 23.3358 25.6257 20.5C25.6257 17.6642 23.3365 15.375 20.5007 15.375Z" fill="black"/>
</svg>
