<svg width="50" height="50" viewBox="0 0 50 50" fill="none" xmlns="http://www.w3.org/2000/svg">
<path d="M9.32161 30.625C8.97439 29.7222 8.723 28.8104 8.56745 27.8896C8.4105 26.9701 8.33203 26.0417 8.33203 25.1042C8.33203 20.4514 9.94661 16.4931 13.1758 13.2292C16.4049 9.96528 20.3459 8.33333 24.9987 8.33333H25.3633L23.4883 6.45833C23.1063 6.07639 22.9154 5.59028 22.9154 5C22.9154 4.40972 23.1063 3.92361 23.4883 3.54167C23.8702 3.15972 24.3563 2.96875 24.9466 2.96875C25.5369 2.96875 26.023 3.15972 26.4049 3.54167L31.8216 8.95833C32.0299 9.16667 32.1779 9.39236 32.2654 9.63542C32.3515 9.87847 32.3945 10.1389 32.3945 10.4167C32.3945 10.6944 32.3515 10.9549 32.2654 11.1979C32.1779 11.441 32.0299 11.6667 31.8216 11.875L26.4049 17.2917C26.023 17.6736 25.5369 17.8646 24.9466 17.8646C24.3563 17.8646 23.8702 17.6736 23.4883 17.2917C23.1063 16.9097 22.9154 16.4236 22.9154 15.8333C22.9154 15.2431 23.1063 14.7569 23.4883 14.375L25.3633 12.5H24.9987C21.5265 12.5 18.5751 13.7236 16.1445 16.1708C13.714 18.6194 12.4987 21.5972 12.4987 25.1042C12.4987 25.7986 12.5598 26.4757 12.682 27.1354C12.8029 27.7951 12.9848 28.4549 13.2279 29.1146C13.3668 29.4618 13.4015 29.8347 13.332 30.2333C13.2626 30.6333 13.089 30.9722 12.8112 31.25C12.1862 31.875 11.5181 32.1271 10.807 32.0062C10.0945 31.884 9.59939 31.4236 9.32161 30.625ZM23.5924 46.4583L18.1758 41.0417C17.9674 40.8333 17.8202 40.6076 17.7341 40.3646C17.6466 40.1215 17.6029 39.8611 17.6029 39.5833C17.6029 39.3056 17.6466 39.0451 17.7341 38.8021C17.8202 38.559 17.9674 38.3333 18.1758 38.125L23.5924 32.7083C23.9744 32.3264 24.4605 32.1354 25.0508 32.1354C25.6411 32.1354 26.1272 32.3264 26.5091 32.7083C26.8911 33.0903 27.082 33.5764 27.082 34.1667C27.082 34.7569 26.8911 35.2431 26.5091 35.625L24.6341 37.5H24.9987C28.4709 37.5 31.4223 36.2764 33.8529 33.8292C36.2834 31.3806 37.4987 28.4028 37.4987 24.8958C37.4987 24.2014 37.4383 23.5243 37.3174 22.8646C37.1952 22.2049 37.0126 21.5451 36.7695 20.8854C36.6306 20.5382 36.5959 20.1646 36.6654 19.7646C36.7348 19.366 36.9084 19.0278 37.1862 18.75C37.8112 18.125 38.4793 17.8729 39.1904 17.9937C39.9029 18.116 40.398 18.5764 40.6758 19.375C41.023 20.2778 41.2751 21.1889 41.432 22.1083C41.5876 23.0292 41.6654 23.9583 41.6654 24.8958C41.6654 29.5486 40.0508 33.5069 36.8216 36.7708C33.5924 40.0347 29.6515 41.6667 24.9987 41.6667H24.6341L26.5091 43.5417C26.8911 43.9236 27.082 44.4097 27.082 45C27.082 45.5903 26.8911 46.0764 26.5091 46.4583C26.1272 46.8403 25.6411 47.0312 25.0508 47.0312C24.4605 47.0312 23.9744 46.8403 23.5924 46.4583Z" fill="#19947D"/>
</svg>
