<svg width="48" height="48" viewBox="0 0 48 48" fill="none" xmlns="http://www.w3.org/2000/svg">
<path d="M16 24H32V28H16V24ZM20 40H12V8H26V18H36V24.2L40 20.2V16L28 4H12C10.9391 4 9.92172 4.42143 9.17157 5.17157C8.42143 5.92172 8 6.93913 8 8V40C8 41.0609 8.42143 42.0783 9.17157 42.8284C9.92172 43.5786 10.9391 44 12 44H20V40ZM16 36H24.2L26 34.2V32H16V36ZM40.4 26C40.6 26 41 26.2 41.2 26.4L43.8 29C44.2 29.4 44.2 30.2 43.8 30.6L41.8 32.6L37.6 28.4L39.6 26.4C39.8 26.2 40 26 40.4 26ZM40.4 33.8L28.2 46H24V41.8L36.2 29.6L40.4 33.8Z" fill="#19947D"/>
</svg>
