<svg width="49" height="49" viewBox="0 0 49 49" fill="none" xmlns="http://www.w3.org/2000/svg">
<path d="M27.5618 16.3333H24.4993V26.5417L33.2377 31.7275L34.7077 29.2571L27.5618 25.0104V16.3333ZM26.541 6.125C21.6677 6.125 16.9939 8.06093 13.5479 11.5069C10.1019 14.9529 8.16602 19.6266 8.16602 24.5H2.04102L10.126 32.7279L18.3743 24.5H12.2493C12.2493 20.7096 13.7551 17.0745 16.4353 14.3943C19.1155 11.7141 22.7506 10.2083 26.541 10.2083C30.3314 10.2083 33.9665 11.7141 36.6468 14.3943C39.327 17.0745 40.8327 20.7096 40.8327 24.5C40.8327 28.2904 39.327 31.9255 36.6468 34.6057C33.9665 37.2859 30.3314 38.7917 26.541 38.7917C22.6006 38.7917 19.0277 37.1788 16.4552 34.5858L13.556 37.485C15.2536 39.2013 17.2763 40.5619 19.5058 41.4874C21.7354 42.4128 24.127 42.8846 26.541 42.875C31.4144 42.875 36.0881 40.9391 39.5341 37.4931C42.9801 34.0471 44.916 29.3734 44.916 24.5C44.916 19.6266 42.9801 14.9529 39.5341 11.5069C36.0881 8.06093 31.4144 6.125 26.541 6.125Z" fill="black"/>
</svg>
