<svg width="184" height="184" viewBox="0 0 184 184" fill="none" xmlns="http://www.w3.org/2000/svg">
<g filter="url(#filter0_d_146_4041)">
<circle cx="92" cy="88" r="88" fill="#535353"/>
</g>
<path d="M46.7441 131.856C46.7441 127.96 49.6557 124.667 53.5327 124.237C82.6293 121.016 101.505 121.307 130.538 124.309C131.988 124.461 133.362 125.032 134.492 125.953C135.623 126.873 136.461 128.103 136.904 129.491C137.347 130.88 137.376 132.368 136.988 133.773C136.599 135.178 135.81 136.439 134.716 137.403C100.453 167.269 80.8718 166.858 49.1579 137.433C47.6116 136 46.7441 133.964 46.7441 131.859V131.856Z" fill="white"/>
<path fill-rule="evenodd" clip-rule="evenodd" d="M130.145 128.081C101.343 125.102 82.7385 124.822 53.9399 128.009C52.9919 128.12 52.118 128.576 51.4854 129.291C50.8529 130.005 50.5061 130.928 50.5116 131.883C50.5116 132.961 50.9604 133.983 51.7185 134.692C67.4378 149.273 79.348 155.861 90.9904 155.903C102.674 155.944 115.226 149.408 132.235 134.587C132.775 134.106 133.164 133.478 133.354 132.78C133.545 132.082 133.528 131.344 133.307 130.655C133.086 129.967 132.669 129.357 132.108 128.901C131.547 128.444 130.865 128.161 130.145 128.085V128.081ZM53.1139 120.512C82.516 117.257 101.667 117.551 130.926 120.58C133.107 120.807 135.174 121.666 136.875 123.05C138.575 124.435 139.835 126.285 140.501 128.375C141.166 130.464 141.207 132.702 140.62 134.815C140.033 136.928 138.842 138.824 137.194 140.27C119.94 155.311 105.571 163.502 90.9677 163.446C76.3233 163.393 62.5877 155.062 46.5931 140.221C45.4479 139.155 44.535 137.863 43.9114 136.428C43.2878 134.992 42.9669 133.444 42.9688 131.879C42.9633 129.067 43.9954 126.352 45.8674 124.254C47.7393 122.156 50.3196 120.822 53.1139 120.508V120.512Z" fill="white"/>
<path fill-rule="evenodd" clip-rule="evenodd" d="M92.0008 155.887C129.493 155.887 159.887 125.493 159.887 88.0016C159.887 50.5098 129.493 20.1159 92.0008 20.1159C54.5091 20.1159 24.1151 50.5098 24.1151 88.0016C24.1151 125.493 54.5091 155.887 92.0008 155.887ZM92.0008 163.43C133.66 163.43 167.429 129.661 167.429 88.0016C167.429 46.3424 133.66 12.573 92.0008 12.573C50.3416 12.573 16.5723 46.3424 16.5723 88.0016C16.5723 129.661 50.3416 163.43 92.0008 163.43Z" fill="white"/>
<path d="M122.171 72.9109C122.171 80.9129 118.992 88.5871 113.334 94.2454C107.676 99.9036 100.002 103.082 91.9996 103.082C83.9976 103.082 76.3234 99.9036 70.6651 94.2454C65.0069 88.5871 61.8281 80.9129 61.8281 72.9109C61.8281 64.909 65.0069 57.2347 70.6651 51.5765C76.3234 45.9183 83.9976 42.7395 91.9996 42.7395C100.002 42.7395 107.676 45.9183 113.334 51.5765C118.992 57.2347 122.171 64.909 122.171 72.9109V72.9109Z" fill="white"/>
<path fill-rule="evenodd" clip-rule="evenodd" d="M91.9996 95.5395C98.001 95.5395 103.757 93.1554 108 88.9118C112.244 84.6681 114.628 78.9124 114.628 72.9109C114.628 66.9095 112.244 61.1538 108 56.9101C103.757 52.6664 98.001 50.2824 91.9996 50.2824C85.9981 50.2824 80.2424 52.6664 75.9987 56.9101C71.7551 61.1538 69.371 66.9095 69.371 72.9109C69.371 78.9124 71.7551 84.6681 75.9987 88.9118C80.2424 93.1554 85.9981 95.5395 91.9996 95.5395V95.5395ZM91.9996 103.082C100.002 103.082 107.676 99.9036 113.334 94.2454C118.992 88.5871 122.171 80.9129 122.171 72.9109C122.171 64.909 118.992 57.2347 113.334 51.5765C107.676 45.9183 100.002 42.7395 91.9996 42.7395C83.9976 42.7395 76.3234 45.9183 70.6651 51.5765C65.0069 57.2347 61.8281 64.909 61.8281 72.9109C61.8281 80.9129 65.0069 88.5871 70.6651 94.2454C76.3234 99.9036 83.9976 103.082 91.9996 103.082V103.082Z" fill="white"/>
<defs>
<filter id="filter0_d_146_4041" x="0" y="0" width="184" height="184" filterUnits="userSpaceOnUse" color-interpolation-filters="sRGB">
<feFlood flood-opacity="0" result="BackgroundImageFix"/>
<feColorMatrix in="SourceAlpha" type="matrix" values="0 0 0 0 0 0 0 0 0 0 0 0 0 0 0 0 0 0 127 0" result="hardAlpha"/>
<feOffset dy="4"/>
<feGaussianBlur stdDeviation="2"/>
<feComposite in2="hardAlpha" operator="out"/>
<feColorMatrix type="matrix" values="0 0 0 0 0 0 0 0 0 0 0 0 0 0 0 0 0 0 0.25 0"/>
<feBlend mode="normal" in2="BackgroundImageFix" result="effect1_dropShadow_146_4041"/>
<feBlend mode="normal" in="SourceGraphic" in2="effect1_dropShadow_146_4041" result="shape"/>
</filter>
</defs>
</svg>
