<svg width="50" height="50" viewBox="0 0 50 50" fill="none" xmlns="http://www.w3.org/2000/svg">
<path d="M16.6667 39.5827V10.416H23.9583C25.1895 10.416 26.4086 10.6585 27.546 11.1296C28.6834 11.6008 29.7169 12.2913 30.5875 13.1619C31.458 14.0324 32.1486 15.0659 32.6197 16.2034C33.0908 17.3408 33.3333 18.5599 33.3333 19.791C33.3333 21.0222 33.0908 22.2412 32.6197 23.3787C32.1486 24.5161 31.458 25.5496 30.5875 26.4201C29.7169 27.2907 28.6834 27.9813 27.546 28.4524C26.4086 28.9235 25.1895 29.166 23.9583 29.166H16.6667M37.5 16.666H12.5M37.5 22.916H12.5" stroke="#19947D" stroke-width="3" stroke-linecap="round" stroke-linejoin="round"/>
</svg>
